<?xml version="1.0" standalone="no"?>
<!DOCTYPE svg PUBLIC "-//W3C//DTD SVG 1.1//EN" "http://www.w3.org/Graphics/SVG/1.1/DTD/svg11.dtd" >
<svg xmlns="http://www.w3.org/2000/svg">
<metadata>
This is a custom SVG webfont generated by Font Squirrel.
Copyright   : 1999 2000 ShyFonts Type Foundry
</metadata>
<defs>
<font id="SFNewRepublicRegular" horiz-adv-x="1229" >
<font-face units-per-em="2048" ascent="1638" descent="-410" />
<missing-glyph horiz-adv-x="597" />
<glyph unicode=" "  horiz-adv-x="597" />
<glyph unicode="&#x09;" horiz-adv-x="597" />
<glyph unicode="&#xa0;" horiz-adv-x="597" />
<glyph unicode="!" horiz-adv-x="512" d="M171 0v171h170v-171h-170zM171 1365h170l-34 -1024h-102z" />
<glyph unicode="&#x22;" horiz-adv-x="768" d="M171 1195v170h170v-256h-119v34h68v52h-119zM427 1195v170h170v-256h-119v34h68v52h-119z" />
<glyph unicode="#" horiz-adv-x="1126" d="M171 751v136h164l13 171h-177v137h189l15 170h137l-15 -170h170l16 170h136l-15 -170h152v-137h-164l-14 -171h178v-136h-190l-15 -171h-137l16 171h-171l-15 -171h-137l16 171h-152zM471 887h171l13 171h-170z" />
<glyph unicode="$" horiz-adv-x="947" d="M171 370l133 36q19 -124 136 -145v362q-137 52 -194 109q-75 75 -75 207q0 113 77 199q79 86 192 101v126h67v-124q101 -9 176 -78q74 -68 94 -170l-135 -34q-16 125 -135 145v-363q140 -56 194 -108q76 -73 76 -205q0 -115 -78 -200q-78 -86 -192 -102v-126h-67v125 q-99 7 -176 77q-75 69 -93 168zM309 939q0 -111 131 -171v333q-56 -14 -94 -59q-37 -44 -37 -103zM507 265q29 6 53.5 21.5t42 37.5t27.5 48.5t10 55.5q0 108 -133 168v-331z" />
<glyph unicode="%" horiz-adv-x="1809" d="M85 1007q0 147 106 252q106 106 253 106t252 -106q106 -105 106 -252t-106 -253q-105 -105 -252 -105t-253 105q-106 106 -106 253zM256 1007q0 -78 55 -133t133 -55q77 0 132 55t55 133q0 77 -55 132q-56 56 -132 56q-77 0 -133 -56q-55 -55 -55 -132zM358 0l890 1365 h203l-890 -1365h-203zM1007 358q0 147 106 253t252 106q147 0 253 -106t106 -253q0 -146 -106 -252t-253 -106q-146 0 -252 106t-106 252zM1178 358q0 -77 55 -132t132 -55t132 55q56 56 56 132t-56 132t-132 56t-132 -56q-55 -55 -55 -132z" />
<glyph unicode="&#x26;" horiz-adv-x="1178" d="M171 410q0 113 58 204q58 93 158 142q-148 91 -148 268q0 148 105 253t253 105q121 0 219 -75q96 -74 128 -191l-166 -44q-16 60 -68 100q-49 40 -113 40q-76 0 -132 -56q-55 -55 -55 -132q0 -78 55 -133t132 -55h410v-170h-85v-325q0 -150 -112 -253t-264 -103 q-165 0 -275 131q-100 124 -100 294zM341 410q0 -100 52 -173q59 -83 153 -83q81 0 143 53q62 54 62 134v325h-154q-104 0 -180 -76t-76 -180z" />
<glyph unicode="'" horiz-adv-x="512" d="M171 1195v170h170v-256h-119v34h68v52h-119z" />
<glyph unicode="(" horiz-adv-x="717" d="M171 683q0 254 44 441q22 93 62 195.5t98 216.5h171q-116 -227 -161 -412q-44 -187 -44 -441t44 -442q45 -184 161 -410h-171q-58 113 -98 215t-62 195q-44 188 -44 442z" />
<glyph unicode=")" horiz-adv-x="717" d="M171 -169q58 113 98 215t62 195q44 188 44 442t-44 441q-22 93 -62 195.5t-98 216.5h170q58 -114 98 -216.5t62 -195.5q45 -185 45 -441t-45 -442q-22 -93 -62 -195t-98 -215h-170z" />
<glyph unicode="*" horiz-adv-x="922" d="M171 913q0 32 30 58l231 70l-231 70q-30 24 -30 58q0 68 68 68q11 0 31 -6l175 -164l-52 233q8 65 68 65q57 0 68 -65l-53 -233l176 164q16 6 31 6q29 0 48.5 -19.5t19.5 -48.5q0 -33 -31 -58l-230 -70l230 -70q31 -24 31 -58q0 -68 -68 -68q-13 0 -31 7l-176 163 l53 -233q-8 -65 -68 -65q-57 0 -68 65l52 233l-175 -163q-15 -7 -31 -7q-29 0 -48.5 19.5t-19.5 48.5z" />
<glyph unicode="+" horiz-adv-x="853" d="M171 614v137h187v188h137v-188h188v-137h-188v-187h-137v187h-187z" />
<glyph unicode="," horiz-adv-x="512" d="M171 0v171h170v-255h-119v35h68v49h-119z" />
<glyph unicode="-" horiz-adv-x="853" d="M171 614v137h512v-137h-512z" />
<glyph unicode="." horiz-adv-x="512" d="M171 0v171h170v-171h-170z" />
<glyph unicode="/" horiz-adv-x="744" d="M0 -89l584 1603l160 -58l-584 -1603z" />
<glyph unicode="0" horiz-adv-x="1195" d="M171 410v546q0 176 125 301q127 125 301 125q176 0 301 -125q126 -125 126 -301v-546q0 -177 -126 -301q-124 -124 -301 -124q-176 0 -301 124q-125 125 -125 301zM341 410q0 -106 75 -181q76 -75 181 -75q106 0 181 75t75 181v546q0 106 -75 181t-181 75 q-105 0 -181 -75q-75 -75 -75 -181v-546z" />
<glyph unicode="1" horiz-adv-x="512" d="M171 0v1365h170v-1365h-170z" />
<glyph unicode="2" horiz-adv-x="1072" d="M171 0v171q0 205 155 351q73 52 145 104t145 106q155 122 155 270q0 87 -64 148q-65 62 -151 62q-79 0 -135 -52q-56 -53 -66 -131l-167 43q26 136 128 222q103 88 240 88q159 0 273 -111q115 -109 115 -269q0 -203 -157 -348q-73 -54 -145 -107t-145 -107 q-157 -121 -156 -269h598v-171h-768z" />
<glyph unicode="3" horiz-adv-x="1138" d="M128 302l166 43q23 -84 91 -138q70 -53 156 -53q106 0 181 75t75 181q0 105 -75 180q-75 76 -181 76h-85v170h85q77 0 132 55q56 56 56 133q0 76 -56 132t-132 56q-64 0 -114 -40q-51 -40 -67 -100l-165 44q30 119 127 192q98 74 219 74q148 0 253 -105t105 -253 q0 -177 -148 -268q217 -106 217 -346q0 -177 -126 -301q-124 -124 -301 -124q-145 0 -260 88t-153 229z" />
<glyph unicode="4" horiz-adv-x="1007" d="M0 341l326 895l160 -58l-242 -666h422v853h170v-1365h-170v341h-666z" />
<glyph unicode="5" horiz-adv-x="1145" d="M171 594l59 771h702v-170h-543l-32 -389q101 100 263 100q174 0 290 -147q107 -139 107 -315q0 -184 -119 -321q-125 -138 -307 -138q-148 0 -261 85q-114 87 -151 229l164 44q24 -85 91 -137t157 -52q112 0 186 90q70 85 70 200q0 113 -72 202q-72 88 -184 88 q-90 0 -157 -52q-67 -51 -91 -136z" />
<glyph unicode="6" horiz-adv-x="1109" d="M171 410q0 52 15 111l225 844h178l-159 -588q88 58 186 58q167 0 287 -128q121 -127 121 -297q0 -177 -126 -301q-124 -124 -301 -124q-176 0 -301 124q-125 125 -125 301zM341 410q0 -106 75 -181q76 -75 181 -75q106 0 181 75t75 181q0 105 -75 180q-75 76 -181 76 q-105 0 -181 -76q-75 -75 -75 -180z" />
<glyph unicode="7" horiz-adv-x="939" d="M85 1195v170h854l-637 -1365h-189l558 1195h-586z" />
<glyph unicode="8" horiz-adv-x="1195" d="M171 410q0 239 216 346q-148 91 -148 268q0 148 105 253t253 105q149 0 254 -105t105 -253q0 -176 -149 -268q217 -106 217 -346q0 -177 -126 -301q-124 -124 -301 -124q-176 0 -301 124q-125 125 -125 301zM341 410q0 -106 75 -181q76 -75 181 -75q106 0 181 75t75 181 q0 105 -75 180q-75 76 -181 76q-105 0 -181 -76q-75 -75 -75 -180zM410 1024q0 -78 55 -133t132 -55t132 55q56 56 56 133q0 76 -56 132t-132 56t-132 -56q-55 -55 -55 -132z" />
<glyph unicode="9" horiz-adv-x="1109" d="M85 956q0 176 125 301q127 125 302 125q176 0 301 -125q126 -125 126 -301q0 -54 -16 -111l-225 -845h-177l158 589q-88 -58 -186 -58q-166 0 -288 128q-120 127 -120 297zM256 956q0 -106 75 -181t181 -75t181 75t75 181t-75 181t-181 75t-181 -75t-75 -181z" />
<glyph unicode=":" horiz-adv-x="512" d="M171 0v171h170v-171h-170zM171 768v171h170v-171h-170z" />
<glyph unicode=";" horiz-adv-x="512" d="M171 0v171h170v-255h-119v35h68v49h-119zM171 768v171h170v-171h-170z" />
<glyph unicode="&#x3c;" horiz-adv-x="657" d="M171 683l170 341h145l-170 -341l170 -342h-145z" />
<glyph unicode="=" horiz-adv-x="939" d="M171 495v136h597v-136h-597zM171 734v136h597v-136h-597z" />
<glyph unicode="&#x3e;" horiz-adv-x="657" d="M171 341l170 342l-170 341h145l170 -341l-170 -342h-145z" />
<glyph unicode="?" horiz-adv-x="1097" d="M171 0v171h170v-171h-170zM171 341v24q0 201 152 302q70 32 139.5 64t139.5 64q152 74 152 207q0 87 -64 148q-65 62 -151 62q-79 0 -135 -52q-56 -53 -66 -131l-167 43q26 136 128 222q103 88 240 88q159 0 273 -111q115 -109 115 -269q0 -205 -152 -306l-140 -64 q-70 -32 -142 -64q-152 -71 -152 -203v-24h-170z" />
<glyph unicode="@" horiz-adv-x="1570" d="M85 683q0 286 206 492q207 207 494 207t493 -207q207 -206 207 -492q0 -213 -97 -347q-111 -153 -315 -153q-73 0 -130 57t-57 130v13q0 6 1 11q-85 -49 -180 -49q-121 0 -197 79q-77 80 -77 199q0 154 119 276q120 122 274 122q94 0 162 -50l9 39h153l-100 -570 q-4 -16 -4 -25q0 -69 51 -69q115 0 174 117q43 87 43 220q0 216 -156 372q-156 157 -373 157t-373 -157q-156 -156 -156 -372q0 -217 156 -373t373 -156v-169q-288 0 -494 205q-206 206 -206 493zM606 652q0 -30 10.5 -55t28.5 -43.5t43.5 -28.5t55.5 -10q75 0 135 61 q61 61 61 136q0 30 -10 55t-28 43.5t-43 29t-55 10.5q-77 0 -138 -61q-60 -60 -60 -137z" />
<glyph unicode="A" d="M0 0l497 1365h235l497 -1365h-183l-94 256h-677l-94 -256h-181zM336 427h555l-277 761z" />
<glyph unicode="B" horiz-adv-x="1451" d="M171 0v1365h691q157 0 270 -114q114 -113 114 -270q0 -191 -161 -290q195 -95 195 -307q0 -157 -114 -271q-113 -113 -270 -113h-725zM341 171h555q87 0 150 63t63 150t-63 150t-150 63h-555v-426zM341 768h521q87 0 150 63t63 150t-63 150q-63 64 -150 64h-521v-427z " />
<glyph unicode="C" horiz-adv-x="1459" d="M85 683q0 286 206 492q207 207 494 207q176 0 334 -87t255 -235l-143 -92q-73 111 -194 178q-119 66 -252 66q-217 0 -373 -157q-156 -156 -156 -372q0 -217 156 -373t373 -156q131 0 250 65q121 66 194 177l143 -94q-98 -147 -254 -232q-157 -85 -333 -85 q-288 0 -494 205q-206 206 -206 493z" />
<glyph unicode="D" horiz-adv-x="1451" d="M171 0v1365h512q281 0 481 -201q201 -200 201 -481q0 -282 -201 -483q-200 -200 -481 -200h-512zM341 171h342q210 0 361 151t151 361t-151 361t-361 151h-342v-1024z" />
<glyph unicode="E" horiz-adv-x="1195" d="M171 0v1365h853v-170h-683v-410h512v-171h-512v-443h683v-171h-853z" />
<glyph unicode="F" horiz-adv-x="1109" d="M171 0v1365h853v-170h-683v-410h512v-171h-512v-614h-170z" />
<glyph unicode="G" horiz-adv-x="1545" d="M85 683q0 286 206 492q207 207 494 207q176 0 334 -87t255 -235l-143 -92q-73 111 -194 177q-118 67 -252 67q-217 0 -373 -157q-156 -156 -156 -372q0 -217 156 -373t373 -156q252 0 416 204v239h-416v171h587v-768h-171v155q-146 -170 -416 -170q-288 0 -494 205 q-206 206 -206 493z" />
<glyph unicode="H" horiz-adv-x="1365" d="M171 0v1365h170v-597h683v597h171v-1365h-171v597h-683v-597h-170z" />
<glyph unicode="I" horiz-adv-x="512" d="M171 0v1365h170v-1365h-170z" />
<glyph unicode="J" horiz-adv-x="896" d="M43 367h170q0 -89 62 -151q64 -62 152 -62q87 0 150 63t63 150v998h171v-998q0 -158 -113 -271q-113 -111 -271 -111q-160 0 -272 111q-112 112 -112 271z" />
<glyph unicode="K" horiz-adv-x="1237" d="M171 0v1365h170v-612l613 612h241l-683 -682l683 -683h-241l-563 561l-50 -49v-512h-170z" />
<glyph unicode="L" horiz-adv-x="1024" d="M171 0v1365h170v-1194h683v-171h-853z" />
<glyph unicode="M" horiz-adv-x="1707" d="M171 0v1365h177l505 -1152l506 1152h177v-1365h-171v956l-418 -956h-188l-418 956v-956h-170z" />
<glyph unicode="N" horiz-adv-x="1365" d="M171 0v1365h170l683 -1051v1051h171v-1365h-171l-683 1051v-1051h-170z" />
<glyph unicode="O" horiz-adv-x="1570" d="M85 683q0 286 206 492q207 207 494 207t493 -207q207 -206 207 -492q0 -288 -207 -493q-205 -205 -493 -205t-494 205q-206 206 -206 493zM256 683q0 -217 156 -373t373 -156t373 156t156 373q0 216 -156 372q-156 157 -373 157t-373 -157q-156 -156 -156 -372z" />
<glyph unicode="P" horiz-adv-x="1365" d="M171 0v1365h725q157 0 270 -114q114 -113 114 -270q0 -158 -113 -271t-271 -113h-555v-597h-170zM341 768h555q87 0 150 63t63 150t-63 150q-63 64 -150 64h-555v-427z" />
<glyph unicode="Q" horiz-adv-x="1570" d="M85 683q0 286 206 492q207 207 494 207t493 -207q207 -206 207 -492q0 -240 -150 -430l252 -253l-119 -118l-253 251q-190 -148 -430 -148q-288 0 -494 205q-206 206 -206 493zM256 683q0 -217 156 -373t373 -156q170 0 307 100l-256 256l121 121l256 -256 q101 140 101 308q0 216 -156 372q-156 157 -373 157t-373 -157q-156 -156 -156 -372z" />
<glyph unicode="R" horiz-adv-x="1365" d="M171 0v1365h725q157 0 270 -114q114 -113 114 -270q0 -147 -100 -257q-101 -110 -246 -125l346 -599h-198l-343 597h-398v-597h-170zM341 768h555q87 0 150 63t63 150t-63 150q-63 64 -150 64h-555v-427z" />
<glyph unicode="S" horiz-adv-x="1097" d="M171 292l165 44q12 -77 69 -130q58 -52 136 -52q86 0 151 62q64 61 64 149q0 132 -152 203l-140 64q-70 32 -141 64q-152 101 -152 306q0 159 114 269q114 111 273 111q137 0 240 -88q103 -87 129 -222l-168 -43q-10 78 -66 131q-55 52 -135 52q-86 0 -151 -62 q-64 -61 -64 -148q0 -133 152 -207l280 -126q152 -102 152 -304q0 -158 -114 -269q-113 -111 -272 -111q-136 0 -240 86q-103 85 -130 221z" />
<glyph unicode="T" horiz-adv-x="1109" d="M43 1195v170h1024v-170h-427v-1195h-171v1195h-426z" />
<glyph unicode="U" horiz-adv-x="1451" d="M171 538v827h170v-827q0 -159 113 -272q112 -112 271 -112t271 112q113 113 113 272v827h171v-827q0 -229 -163 -391q-164 -162 -392 -162t-391 162t-163 391z" />
<glyph unicode="V" d="M0 1365h181l433 -1188l432 1188h183l-497 -1365h-235z" />
<glyph unicode="W" horiz-adv-x="1792" d="M0 1365h181l433 -1188l192 524l-243 664h181l152 -414l150 414h183l-243 -665l192 -523l431 1188h183l-497 -1365h-235l-164 451l-164 -451h-235z" />
<glyph unicode="X" horiz-adv-x="1176" d="M43 0l443 683l-443 682h203l341 -525l343 525h203l-444 -682l444 -683h-203l-343 526l-341 -526h-203z" />
<glyph unicode="Y" horiz-adv-x="1005" d="M-41 1365h201l342 -525l343 525h203l-459 -708v-657h-171v657z" />
<glyph unicode="Z" horiz-adv-x="1261" d="M85 0l777 1195h-777v170h1091l-777 -1194h777v-171h-1091z" />
<glyph unicode="[" horiz-adv-x="683" d="M171 -169v1705h341v-171h-171v-1365h171v-169h-341z" />
<glyph unicode="\" horiz-adv-x="744" d="M0 1456l160 58l584 -1603l-160 -58z" />
<glyph unicode="]" horiz-adv-x="683" d="M171 0h170v1365h-170v171h341v-1705h-341v169z" />
<glyph unicode="^" horiz-adv-x="853" d="M171 1195l170 170h171l171 -170h-86l-170 114l-171 -114h-85z" />
<glyph unicode="_" horiz-adv-x="683" d="M0 0h683v-135h-683v135z" />
<glyph unicode="`" horiz-adv-x="683" d="M171 1707h170l171 -171h-85z" />
<glyph unicode="a" horiz-adv-x="1271" d="M85 512q0 218 155 373q156 156 374 156q219 0 374 -156q155 -155 155 -373v-512h-170v154q-151 -169 -376 -169q-213 0 -363 156q-149 157 -149 371zM256 512q0 -147 106 -253q106 -105 252 -105t253 105q106 106 106 253t-106 252q-106 106 -253 106q-146 0 -252 -106 q-106 -105 -106 -252z" />
<glyph unicode="b" horiz-adv-x="1271" d="M128 512v853h171v-495q151 171 375 171q214 0 362 -157q150 -158 150 -372q0 -219 -156 -373q-155 -154 -373 -154q-219 0 -374 154q-155 155 -155 373zM299 512q0 -147 105 -253q106 -105 253 -105t252 105q106 106 106 253t-106 252q-105 106 -252 106t-253 -106 q-105 -105 -105 -252z" />
<glyph unicode="c" d="M85 509q0 221 154 376q154 156 375 156q109 0 214 -44l-70 -157q-72 30 -145 30q-150 0 -253 -105q-104 -106 -104 -255t106 -252q107 -104 254 -104t250 103t105 252h172q-2 -219 -156 -372q-155 -152 -371 -152q-219 0 -376 152q-155 153 -155 372z" />
<glyph unicode="d" horiz-adv-x="1271" d="M85 512q0 214 149 372q150 157 363 157q224 0 376 -171v495h170v-853q0 -218 -155 -373q-154 -154 -374 -154q-219 0 -374 154q-155 155 -155 373zM256 512q0 -147 106 -253q106 -105 252 -105t253 105q106 106 106 253t-106 252q-106 106 -253 106q-146 0 -252 -106 q-106 -105 -106 -252z" />
<glyph unicode="e" d="M85 510q0 221 154 375q154 156 374 156q157 0 290 -86q133 -85 196 -230l-730 -474q103 -97 247 -97q149 0 251 103q103 104 104 252h172q-2 -219 -156 -372q-155 -152 -371 -152q-219 0 -376 152q-155 153 -155 373zM256 510q0 -54 20 -116l584 379q-103 97 -247 97 q-150 0 -253 -106q-104 -106 -104 -254z" />
<glyph unicode="f" horiz-adv-x="614" d="M85 683v170h86v69q0 175 134 309t309 134v-170q-112 0 -193 -81q-80 -80 -80 -192v-69h171v-170h-171v-683h-170v683h-86z" />
<glyph unicode="g" horiz-adv-x="1271" d="M85 512q0 217 156 373q157 156 373 156q217 0 373 -156t156 -373v-410q0 -215 -156 -371t-373 -156q-131 0 -250 65q-119 64 -192 174l144 94q109 -162 298 -162q170 0 268 123q91 110 91 285q-151 -169 -376 -169q-213 0 -363 156q-149 157 -149 371zM256 512 q0 -147 106 -253q106 -105 252 -105t253 105q106 106 106 253t-106 252q-106 106 -253 106q-146 0 -252 -106q-106 -105 -106 -252z" />
<glyph unicode="h" d="M171 0v1365h170v-466q124 142 308 142q175 0 295 -136q114 -131 114 -308v-597h-171v597q0 113 -80 193t-193 80q-111 0 -193 -80q-80 -80 -80 -193v-597h-170z" />
<glyph unicode="i" horiz-adv-x="512" d="M171 0v1024h170v-1024h-170zM171 1195v170h170v-170h-170z" />
<glyph unicode="j" horiz-adv-x="614" d="M0 -169q113 0 193 80t80 191v922h171v-922q0 -174 -134 -308t-310 -134v171zM273 1195v170h171v-170h-171z" />
<glyph unicode="k" horiz-adv-x="1101" d="M171 0v1365h170v-817l476 476h241l-512 -512l512 -512h-241l-392 391l-84 -84v-307h-170z" />
<glyph unicode="l" horiz-adv-x="512" d="M171 0v1365h170v-1365h-170z" />
<glyph unicode="m" horiz-adv-x="1655" d="M128 0v631q0 166 114 288q116 122 279 122q191 0 307 -147q114 147 307 147q164 0 278 -122t114 -288v-631h-170v631q0 97 -64 167q-65 72 -158 72q-102 0 -162 -67q-60 -68 -60 -172v-631h-171v631q0 104 -60 172q-58 67 -161 67q-94 0 -158 -72q-64 -70 -64 -167v-631 h-171z" />
<glyph unicode="n" horiz-adv-x="1143" d="M128 0v597q0 176 134 310t310 134q175 0 309 -134t134 -310v-597h-170v597q0 113 -81 193q-80 80 -192 80q-113 0 -193 -80t-80 -193v-597h-171z" />
<glyph unicode="o" d="M85 512q0 218 155 373q156 156 374 156q219 0 374 -156q155 -155 155 -373t-155 -373q-154 -154 -374 -154q-219 0 -374 154q-155 155 -155 373zM256 512q0 -147 106 -253q106 -105 252 -105t253 105q106 106 106 253t-106 252q-106 106 -253 106q-146 0 -252 -106 q-106 -105 -106 -252z" />
<glyph unicode="p" horiz-adv-x="1271" d="M128 -340v852q0 218 155 373q156 156 374 156q217 0 373 -156q156 -155 156 -373q0 -215 -150 -371q-149 -156 -362 -156q-224 0 -375 169v-494h-171zM299 512q0 -147 105 -253q106 -105 253 -105t252 105q106 106 106 253t-106 252q-105 106 -252 106t-253 -106 q-105 -105 -105 -252z" />
<glyph unicode="q" horiz-adv-x="1271" d="M85 512q0 218 155 373q156 156 374 156q219 0 374 -156q155 -155 155 -373v-852h-170v494q-151 -169 -376 -169q-213 0 -363 156q-149 157 -149 371zM256 512q0 -147 106 -253q106 -105 252 -105t253 105q106 106 106 253t-106 252q-106 106 -253 106q-146 0 -252 -106 q-106 -105 -106 -252z" />
<glyph unicode="r" horiz-adv-x="614" d="M128 0v597q0 176 134 310t310 134v-171q-113 0 -193 -80t-80 -193v-597h-171z" />
<glyph unicode="s" horiz-adv-x="939" d="M171 741q0 123 88 211q89 89 212 89q101 0 183 -65q82 -64 105 -164l-165 -44q-23 102 -123 102q-52 0 -92 -38q-38 -38 -38 -91q0 -81 111 -132q96 -45 147 -69.5t58 -29.5q111 -80 111 -230q0 -123 -89 -209t-211 -86q-104 0 -186 64q-83 65 -105 164l164 45 q4 -23 16 -42t29 -32.5t38 -21.5t44 -8q54 0 92 37q39 37 39 89q0 82 -111 133q-97 45 -148.5 69t-57.5 28q-111 79 -111 231z" />
<glyph unicode="t" horiz-adv-x="597" d="M43 853v171h170v341h171v-341h171v-171h-171v-853h-171v853h-170z" />
<glyph unicode="u" horiz-adv-x="1143" d="M128 427v597h171v-597q0 -113 80 -193t193 -80q112 0 192 80q81 79 81 193v597h170v-597q0 -175 -134 -309q-133 -133 -309 -133q-177 0 -310 133q-134 134 -134 309z" />
<glyph unicode="v" horiz-adv-x="990" d="M0 1024h181l314 -860l314 860h181l-372 -1024h-246z" />
<glyph unicode="w" horiz-adv-x="1451" d="M0 1024h181l314 -860l140 382l-174 478h181l83 -229l84 229h181l-174 -478l140 -382l314 860h181l-372 -1024h-246l-108 295l-107 -295h-246z" />
<glyph unicode="x" horiz-adv-x="954" d="M43 0l332 512l-332 512h203l232 -355l230 355h203l-332 -512l332 -512h-203l-230 355l-232 -355h-203z" />
<glyph unicode="y" horiz-adv-x="954" d="M-49 -340l220 340v1024h170v-761l495 761h203l-887 -1364h-201z" />
<glyph unicode="z" horiz-adv-x="1039" d="M85 0l555 853h-555v171h869l-555 -853h555v-171h-869z" />
<glyph unicode="{" horiz-adv-x="853" d="M171 597v171q70 0 120 50q50 52 50 121v426q0 70 50 120q51 51 121 51h171v-171h-171v-512q0 -70 -51 -121q-46 -46 -109 -49q63 -4 109 -52q51 -50 51 -119v-512h171v-169h-171q-70 0 -121 51q-50 50 -50 118v427q0 70 -50 120t-120 50z" />
<glyph unicode="|" horiz-adv-x="512" d="M171 -169v1705h170v-1705h-170z" />
<glyph unicode="}" horiz-adv-x="853" d="M171 0h170v512q0 69 50 119q47 47 111 52q-64 3 -111 49q-50 52 -50 121v512h-170v171h170q70 0 120 -51q51 -50 51 -120v-426q0 -69 50 -121q52 -50 121 -50v-171q-69 0 -121 -50q-50 -50 -50 -120v-427q0 -69 -51 -118q-50 -51 -120 -51h-170v169z" />
<glyph unicode="~" horiz-adv-x="751" d="M171 1198v68q0 5 10 24q39 75 89 75q31 0 101 -47t109 -47q52 0 100 64v-69q0 -4 -10 -24q-39 -75 -87 -75q-31 0 -102 47t-110 47q-54 0 -100 -63z" />
<glyph horiz-adv-x="512" d="M171 0v171h170v-255h-119v35h68v49h-119z" />
<glyph unicode="&#x201a;" horiz-adv-x="512" d="M171 0v171h170v-255h-119v35h68v49h-119z" />
<glyph horiz-adv-x="768" d="M171 0v171h170v-255h-119v35h68v49h-119zM427 0v171h170v-255h-119v35h68v49h-119z" />
<glyph unicode="&#x201e;" horiz-adv-x="768" d="M171 0v171h170v-255h-119v35h68v49h-119zM427 0v171h170v-255h-119v35h68v49h-119z" />
<glyph unicode="&#x85;" horiz-adv-x="1024" d="M171 0v171h170v-171h-170zM427 0v171h170v-171h-170zM683 0v171h170v-171h-170z" />
<glyph unicode="&#x2026;" horiz-adv-x="1024" d="M171 0v171h170v-171h-170zM427 0v171h170v-171h-170zM683 0v171h170v-171h-170z" />
<glyph horiz-adv-x="853" d="M171 1536l170 171h171l171 -171h-86l-170 114l-171 -114h-85z" />
<glyph unicode="&#x2c6;" horiz-adv-x="853" d="M171 1536l170 171h171l171 -171h-86l-170 114l-171 -114h-85z" />
<glyph horiz-adv-x="2611" d="M85 1007q0 147 106 252q106 106 253 106t252 -106q106 -105 106 -252t-106 -253q-105 -105 -252 -105t-253 105q-106 106 -106 253zM256 1007q0 -78 55 -133t133 -55q77 0 132 55t55 133q0 77 -55 132q-56 56 -132 56q-77 0 -133 -56q-55 -55 -55 -132zM358 0l890 1365 h203l-890 -1365h-203zM1007 358q0 147 106 253t252 106q147 0 253 -106t106 -253q0 -146 -106 -252t-253 -106q-146 0 -252 106t-106 252zM1178 358q0 -77 55 -132t132 -55t132 55q56 56 56 132t-56 132t-132 56t-132 -56q-55 -55 -55 -132zM1809 358q0 147 106 253t252 106 q147 0 253 -106t106 -253q0 -146 -106 -252t-253 -106q-146 0 -252 106t-106 252zM1980 358q0 -77 55 -132t132 -55t132 55q56 56 56 132t-56 132t-132 56t-132 -56q-55 -55 -55 -132z" />
<glyph unicode="&#x2030;" horiz-adv-x="2611" d="M85 1007q0 147 106 252q106 106 253 106t252 -106q106 -105 106 -252t-106 -253q-105 -105 -252 -105t-253 105q-106 106 -106 253zM256 1007q0 -78 55 -133t133 -55q77 0 132 55t55 133q0 77 -55 132q-56 56 -132 56q-77 0 -133 -56q-55 -55 -55 -132zM358 0l890 1365 h203l-890 -1365h-203zM1007 358q0 147 106 253t252 106q147 0 253 -106t106 -253q0 -146 -106 -252t-253 -106q-146 0 -252 106t-106 252zM1178 358q0 -77 55 -132t132 -55t132 55q56 56 56 132t-56 132t-132 56t-132 -56q-55 -55 -55 -132zM1809 358q0 147 106 253t252 106 q147 0 253 -106t106 -253q0 -146 -106 -252t-253 -106q-146 0 -252 106t-106 252zM1980 358q0 -77 55 -132t132 -55t132 55q56 56 56 132t-56 132t-132 56t-132 -56q-55 -55 -55 -132z" />
<glyph horiz-adv-x="1097" d="M171 292l165 44q12 -77 69 -130q58 -52 136 -52q86 0 151 62q64 61 64 149q0 132 -152 203l-140 64q-70 32 -141 64q-152 101 -152 306q0 159 114 269q114 111 273 111q137 0 240 -88q103 -87 129 -222l-168 -43q-10 78 -66 131q-55 52 -135 52q-86 0 -151 -62 q-64 -61 -64 -148q0 -133 152 -207l280 -126q152 -102 152 -304q0 -158 -114 -269q-113 -111 -272 -111q-136 0 -240 86q-103 85 -130 221zM292 1707h85l171 -115l170 115h86l-171 -171h-171z" />
<glyph unicode="&#x160;" horiz-adv-x="1097" d="M171 292l165 44q12 -77 69 -130q58 -52 136 -52q86 0 151 62q64 61 64 149q0 132 -152 203l-140 64q-70 32 -141 64q-152 101 -152 306q0 159 114 269q114 111 273 111q137 0 240 -88q103 -87 129 -222l-168 -43q-10 78 -66 131q-55 52 -135 52q-86 0 -151 -62 q-64 -61 -64 -148q0 -133 152 -207l280 -126q152 -102 152 -304q0 -158 -114 -269q-113 -111 -272 -111q-136 0 -240 86q-103 85 -130 221zM292 1707h85l171 -115l170 115h86l-171 -171h-171z" />
<glyph horiz-adv-x="657" d="M171 683l170 341h145l-170 -341l170 -342h-145z" />
<glyph unicode="&#x2039;" horiz-adv-x="657" d="M171 683l170 341h145l-170 -341l170 -342h-145z" />
<glyph horiz-adv-x="2338" d="M85 683q0 286 206 492q207 207 494 207q319 0 529 -244v227h853v-170h-682v-410h512v-171h-512v-443h682v-171h-853v227q-210 -242 -529 -242q-288 0 -494 205q-206 206 -206 493zM256 683q0 -217 156 -373t373 -156t373 156t156 373q0 216 -156 372q-156 157 -373 157 t-373 -157q-156 -156 -156 -372z" />
<glyph unicode="&#x152;" horiz-adv-x="2338" d="M85 683q0 286 206 492q207 207 494 207q319 0 529 -244v227h853v-170h-682v-410h512v-171h-512v-443h682v-171h-853v227q-210 -242 -529 -242q-288 0 -494 205q-206 206 -206 493zM256 683q0 -217 156 -373t373 -156t373 156t156 373q0 216 -156 372q-156 157 -373 157 t-373 -157q-156 -156 -156 -372z" />
<glyph horiz-adv-x="512" d="M171 1109v256h119v-34h-68v-51h119v-171h-170z" />
<glyph unicode="&#x2018;" horiz-adv-x="512" d="M171 1109v256h119v-34h-68v-51h119v-171h-170z" />
<glyph horiz-adv-x="512" d="M171 1195v170h170v-256h-119v34h68v52h-119z" />
<glyph unicode="&#x2019;" horiz-adv-x="512" d="M171 1195v170h170v-256h-119v34h68v52h-119z" />
<glyph horiz-adv-x="768" d="M171 1109v256h119v-34h-68v-51h119v-171h-170zM427 1109v256h119v-34h-68v-51h119v-171h-170z" />
<glyph unicode="&#x201c;" horiz-adv-x="768" d="M171 1109v256h119v-34h-68v-51h119v-171h-170zM427 1109v256h119v-34h-68v-51h119v-171h-170z" />
<glyph horiz-adv-x="768" d="M171 1195v170h170v-256h-119v34h68v52h-119zM427 1195v170h170v-256h-119v34h68v52h-119z" />
<glyph unicode="&#x201d;" horiz-adv-x="768" d="M171 1195v170h170v-256h-119v34h68v52h-119zM427 1195v170h170v-256h-119v34h68v52h-119z" />
<glyph horiz-adv-x="853" d="M85 683q0 141 100 241t242 100q141 0 241 -100t100 -241q0 -142 -100 -242t-241 -100q-142 0 -242 100t-100 242z" />
<glyph unicode="&#x2022;" horiz-adv-x="853" d="M85 683q0 141 100 241t242 100q141 0 241 -100t100 -241q0 -142 -100 -242t-241 -100q-142 0 -242 100t-100 242z" />
<glyph horiz-adv-x="768" d="M171 614v137h426v-137h-426z" />
<glyph unicode="&#x2013;" horiz-adv-x="768" d="M171 614v137h426v-137h-426z" />
<glyph horiz-adv-x="1024" d="M171 614v137h682v-137h-682z" />
<glyph unicode="&#x2014;" horiz-adv-x="1024" d="M171 614v137h682v-137h-682z" />
<glyph horiz-adv-x="751" d="M171 1481v69q0 5 10 24q39 75 89 75q31 0 101 -47t109 -47q52 0 100 63v-68q0 -5 -10 -24q-39 -75 -87 -75q-31 0 -102 47t-110 47q-54 0 -100 -64z" />
<glyph unicode="&#x2dc;" horiz-adv-x="751" d="M171 1481v69q0 5 10 24q39 75 89 75q31 0 101 -47t109 -47q52 0 100 63v-68q0 -5 -10 -24q-39 -75 -87 -75q-31 0 -102 47t-110 47q-54 0 -100 -64z" />
<glyph horiz-adv-x="1031" d="M85 1304v61h432l183 -414l182 414h63v-491h-61v345l-150 -345h-68l-151 345v-345h-61v430h-154v-430h-61v430h-154z" />
<glyph unicode="&#x2122;" horiz-adv-x="1031" d="M85 1304v61h432l183 -414l182 414h63v-491h-61v345l-150 -345h-68l-151 345v-345h-61v430h-154v-430h-61v430h-154z" />
<glyph horiz-adv-x="939" d="M171 741q0 123 88 211q89 89 212 89q101 0 183 -65q82 -64 105 -164l-165 -44q-23 102 -123 102q-52 0 -92 -38q-38 -38 -38 -91q0 -81 111 -132q96 -45 147 -69.5t58 -29.5q111 -80 111 -230q0 -123 -89 -209t-211 -86q-104 0 -186 64q-83 65 -105 164l164 45 q4 -23 16 -42t29 -32.5t38 -21.5t44 -8q54 0 92 37q39 37 39 89q0 82 -111 133q-97 45 -148.5 69t-57.5 28q-111 79 -111 231zM214 1367h85l171 -115l170 115h86l-171 -171h-171z" />
<glyph unicode="&#x161;" horiz-adv-x="939" d="M171 741q0 123 88 211q89 89 212 89q101 0 183 -65q82 -64 105 -164l-165 -44q-23 102 -123 102q-52 0 -92 -38q-38 -38 -38 -91q0 -81 111 -132q96 -45 147 -69.5t58 -29.5q111 -80 111 -230q0 -123 -89 -209t-211 -86q-104 0 -186 64q-83 65 -105 164l164 45 q4 -23 16 -42t29 -32.5t38 -21.5t44 -8q54 0 92 37q39 37 39 89q0 82 -111 133q-97 45 -148.5 69t-57.5 28q-111 79 -111 231zM214 1367h85l171 -115l170 115h86l-171 -171h-171z" />
<glyph horiz-adv-x="657" d="M171 341l170 342l-170 341h145l170 -341l-170 -342h-145z" />
<glyph unicode="&#x203a;" horiz-adv-x="657" d="M171 341l170 342l-170 341h145l170 -341l-170 -342h-145z" />
<glyph horiz-adv-x="2116" d="M85 512q0 218 155 373q156 156 374 156q134 0 253 -65q117 -64 191 -177q73 112 191 177q119 65 253 65q218 0 373 -156q156 -155 156 -373q0 -22 -1.5 -43t-5.5 -42h-870q28 -120 127 -197q97 -76 221 -76q191 0 299 162l143 -94q-74 -111 -192 -174q-119 -63 -250 -63 q-135 0 -253 64q-119 65 -191 176q-73 -112 -191 -176t-253 -64q-219 0 -374 154q-155 155 -155 373zM256 512q0 -147 106 -253q106 -105 252 -105t253 105q106 106 106 253t-106 252q-106 106 -253 106q-146 0 -252 -106q-106 -105 -106 -252zM1154 597h696 q-28 118 -127 196q-98 77 -221 77t-221 -77q-99 -78 -127 -196z" />
<glyph unicode="&#x153;" horiz-adv-x="2116" d="M85 512q0 218 155 373q156 156 374 156q134 0 253 -65q117 -64 191 -177q73 112 191 177q119 65 253 65q218 0 373 -156q156 -155 156 -373q0 -22 -1.5 -43t-5.5 -42h-870q28 -120 127 -197q97 -76 221 -76q191 0 299 162l143 -94q-74 -111 -192 -174q-119 -63 -250 -63 q-135 0 -253 64q-119 65 -191 176q-73 -112 -191 -176t-253 -64q-219 0 -374 154q-155 155 -155 373zM256 512q0 -147 106 -253q106 -105 252 -105t253 105q106 106 106 253t-106 252q-106 106 -253 106q-146 0 -252 -106q-106 -105 -106 -252zM1154 597h696 q-28 118 -127 196q-98 77 -221 77t-221 -77q-99 -78 -127 -196z" />
<glyph horiz-adv-x="1005" d="M-41 1365h201l342 -525l343 525h203l-459 -708v-657h-171v657zM280 1536v137h136v-137h-136zM587 1536v137h136v-137h-136z" />
<glyph unicode="&#x178;" horiz-adv-x="1005" d="M-41 1365h201l342 -525l343 525h203l-459 -708v-657h-171v657zM280 1536v137h136v-137h-136zM587 1536v137h136v-137h-136z" />
<glyph unicode="&#xa1;" horiz-adv-x="512" d="M171 -340l34 1023h102l34 -1023h-170zM171 853v171h170v-171h-170z" />
<glyph unicode="&#xa2;" horiz-adv-x="1118" d="M171 819q0 174 124 298q125 125 299 125q24 0 45.5 -2t41.5 -6l48 131h73l-56 -152q126 -50 201 -162l-114 -75q-49 74 -133 109l-197 -537q45 -16 91 -16q152 0 239 130l114 -75q-126 -191 -353 -191q-74 0 -137 22l-53 -145h-73l63 174q-101 55 -163 156 q-60 100 -60 216zM307 819q0 -157 135 -242l191 526q-24 3 -39 3q-118 0 -203 -85q-84 -84 -84 -202z" />
<glyph unicode="&#xa5;" horiz-adv-x="1005" d="M-41 1365h201l342 -525l343 525h203l-442 -682h239v-171h-256v-171h256v-170h-256v-171h-171v171h-256v170h256v171h-256v171h239z" />
<glyph unicode="&#xa8;" horiz-adv-x="785" d="M171 1536v137h136v-137h-136zM478 1536v137h136v-137h-136z" />
<glyph unicode="&#xa9;" horiz-adv-x="928" d="M85 362q0 157 111 268t268 111t268 -111t111 -268q0 -158 -111 -267q-112 -110 -268 -110t-268 110q-111 109 -111 267zM147 362q0 -132 93 -225t224 -93q132 0 225 93t93 225q0 131 -93 224t-225 93q-131 0 -224 -93t-93 -224zM212 362q0 102 75 177t177 75 q137 0 212 -116l-51 -34q-59 89 -161 89q-78 0 -135 -57q-56 -56 -56 -134q0 -79 56 -135q58 -56 135 -56q102 0 161 87l51 -33q-77 -116 -212 -116q-102 0 -177 75t-75 178z" />
<glyph unicode="&#xaa;" horiz-adv-x="1271" d="M85 512q0 218 155 373q156 156 374 156q219 0 374 -156q155 -155 155 -373v-512h-170v154q-151 -169 -376 -169q-213 0 -363 156q-149 157 -149 371zM256 512q0 -147 106 -253q106 -105 252 -105t253 105q106 106 106 253t-106 252q-106 106 -253 106q-146 0 -252 -106 q-106 -105 -106 -252z" />
<glyph unicode="&#xab;" horiz-adv-x="973" d="M171 683l170 341h145l-170 -341l170 -342h-145zM486 683l171 341h145l-171 -341l171 -342h-145z" />
<glyph unicode="&#xad;" horiz-adv-x="853" d="M171 614v137h512v-137h-512z" />
<glyph unicode="&#xae;" horiz-adv-x="928" d="M85 362q0 157 111 268t268 111t268 -111t111 -268q0 -158 -111 -267q-112 -110 -268 -110t-268 110q-111 109 -111 267zM147 362q0 -152 118 -248v483h261q56 0 97 -41t41 -97q0 -53 -36 -92t-89 -44l121 -210q122 95 122 249q0 131 -93 224t-225 93q-131 0 -224 -93 t-93 -224zM276 106q85 -62 188 -62t188 62h-60l-123 215h-143v-215h-50zM326 382h200q15 0 28.5 6.5t24 17t17 24.5t6.5 29t-6.5 29t-17 24.5t-24 17t-28.5 6.5h-200v-154z" />
<glyph unicode="&#xaf;" horiz-adv-x="853" d="M171 1229v136h512v-136h-512z" />
<glyph unicode="&#xb0;" horiz-adv-x="597" d="M171 1237q0 53 37 90q38 38 91 38q52 0 90 -38t38 -90q0 -53 -38 -91q-37 -37 -90 -37q-54 0 -91 37t-37 91zM239 1237q0 -59 60 -59q59 0 59 59q0 60 -59 60q-60 0 -60 -60z" />
<glyph unicode="&#xb1;" horiz-adv-x="853" d="M171 0v137h512v-137h-512zM171 614v137h187v188h137v-188h188v-137h-188v-187h-137v187h-187z" />
<glyph unicode="&#xb2;" horiz-adv-x="1072" d="M171 0v171q0 205 155 351q73 52 145 104t145 106q155 122 155 270q0 87 -64 148q-65 62 -151 62q-79 0 -135 -52q-56 -53 -66 -131l-167 43q26 136 128 222q103 88 240 88q159 0 273 -111q115 -109 115 -269q0 -203 -157 -348q-73 -54 -145 -107t-145 -107 q-157 -121 -156 -269h598v-171h-768z" />
<glyph unicode="&#xb3;" horiz-adv-x="1138" d="M128 302l166 43q23 -84 91 -138q70 -53 156 -53q106 0 181 75t75 181q0 105 -75 180q-75 76 -181 76h-85v170h85q77 0 132 55q56 56 56 133q0 76 -56 132t-132 56q-64 0 -114 -40q-51 -40 -67 -100l-165 44q30 119 127 192q98 74 219 74q148 0 253 -105t105 -253 q0 -177 -148 -268q217 -106 217 -346q0 -177 -126 -301q-124 -124 -301 -124q-145 0 -260 88t-153 229z" />
<glyph unicode="&#xb4;" horiz-adv-x="683" d="M171 1536l170 171h171l-256 -171h-85z" />
<glyph unicode="&#xb6;" horiz-adv-x="1323" d="M85 981q0 157 113 270q114 114 271 114h768v-170h-170v-1364h-171v1364h-171v-1364h-170v766h-86q-158 0 -271 113t-113 271z" />
<glyph unicode="&#xb9;" horiz-adv-x="512" d="M171 0v1365h170v-1365h-170z" />
<glyph unicode="&#xba;" d="M85 512q0 218 155 373q156 156 374 156q219 0 374 -156q155 -155 155 -373t-155 -373q-154 -154 -374 -154q-219 0 -374 154q-155 155 -155 373zM256 512q0 -147 106 -253q106 -105 252 -105t253 105q106 106 106 253t-106 252q-106 106 -253 106q-146 0 -252 -106 q-106 -105 -106 -252z" />
<glyph unicode="&#xbb;" horiz-adv-x="973" d="M171 341l170 342l-170 341h145l170 -341l-170 -342h-145zM486 341l171 342l-171 341h145l171 -341l-171 -342h-145z" />
<glyph unicode="&#xbf;" horiz-adv-x="1097" d="M171 39q0 205 152 306l140 64q70 32 141 64q152 71 152 203v24h171v-24q0 -201 -152 -302l-140 -64l-140 -64q-152 -74 -152 -207q0 -85 64 -146q65 -62 151 -62q80 0 135 52t66 129l168 -41q-25 -134 -129 -223q-103 -88 -240 -88q-159 0 -273 111t-114 268zM756 870 v171h171v-171h-171z" />
<glyph unicode="&#xc0;" d="M0 0l497 1365h235l497 -1365h-183l-94 256h-677l-94 -256h-181zM336 427h555l-277 761zM359 1707h170l171 -171h-85z" />
<glyph unicode="&#xc1;" d="M0 0l497 1365h235l497 -1365h-183l-94 256h-677l-94 -256h-181zM336 427h555l-277 761zM529 1536l170 171h171l-256 -171h-85z" />
<glyph unicode="&#xc2;" d="M0 0l497 1365h235l497 -1365h-183l-94 256h-677l-94 -256h-181zM336 427h555l-277 761zM359 1536l170 171h171l171 -171h-86l-170 114l-171 -114h-85z" />
<glyph unicode="&#xc3;" d="M0 0l497 1365h235l497 -1365h-183l-94 256h-677l-94 -256h-181zM336 427h555l-277 761zM410 1481v69q0 5 10 24q39 75 89 75q31 0 101 -47t109 -47q52 0 100 63v-68q0 -5 -10 -24q-39 -75 -87 -75q-31 0 -102 47t-110 47q-54 0 -100 -64z" />
<glyph unicode="&#xc4;" d="M0 0l497 1365h235l497 -1365h-183l-94 256h-677l-94 -256h-181zM336 427h555l-277 761zM393 1536v137h136v-137h-136zM700 1536v137h136v-137h-136z" />
<glyph unicode="&#xc5;" d="M0 0l497 1365h235l497 -1365h-183l-94 256h-677l-94 -256h-181zM336 427h555l-277 761zM487 1579q0 53 37 90q38 38 91 38q52 0 90 -38t38 -90q0 -53 -38 -91q-37 -37 -90 -37q-54 0 -91 37t-37 91zM555 1579q0 -60 60 -60q59 0 59 60q0 59 -59 59q-60 0 -60 -59z" />
<glyph unicode="&#xc6;" horiz-adv-x="1901" d="M-84 0l878 1365h937v-170h-683v-410h512v-171h-512v-443h683v-171h-854v256h-599l-165 -256h-197zM387 427h490v761z" />
<glyph unicode="&#xc8;" horiz-adv-x="1195" d="M171 0v1365h853v-170h-683v-410h512v-171h-512v-443h683v-171h-853zM342 1707h170l171 -171h-85z" />
<glyph unicode="&#xc9;" horiz-adv-x="1195" d="M171 0v1365h853v-170h-683v-410h512v-171h-512v-443h683v-171h-853zM512 1536l170 171h171l-256 -171h-85z" />
<glyph unicode="&#xca;" horiz-adv-x="1195" d="M171 0v1365h853v-170h-683v-410h512v-171h-512v-443h683v-171h-853zM342 1536l170 171h171l171 -171h-86l-170 114l-171 -114h-85z" />
<glyph unicode="&#xcb;" horiz-adv-x="1195" d="M171 0v1365h853v-170h-683v-410h512v-171h-512v-443h683v-171h-853zM376 1536v137h136v-137h-136zM683 1536v137h136v-137h-136z" />
<glyph unicode="&#xcc;" horiz-adv-x="512" d="M171 0v1365h170v-1365h-170zM1 1707h170l171 -171h-85z" />
<glyph unicode="&#xcd;" horiz-adv-x="512" d="M171 0v1365h170v-1365h-170zM171 1536l170 171h171l-256 -171h-85z" />
<glyph unicode="&#xce;" horiz-adv-x="512" d="M171 0v1365h170v-1365h-170zM1 1536l170 171h171l171 -171h-86l-170 114l-171 -114h-85z" />
<glyph unicode="&#xcf;" horiz-adv-x="512" d="M171 0v1365h170v-1365h-170zM35 1536v137h136v-137h-136zM342 1536v137h136v-137h-136z" />
<glyph unicode="&#xd1;" horiz-adv-x="1365" d="M171 0v1365h170l683 -1051v1051h171v-1365h-171l-683 1051v-1051h-170zM478 1481v69q0 5 10 24q39 75 89 75q31 0 101 -47t109 -47q52 0 100 63v-68q0 -5 -10 -24q-39 -75 -87 -75q-31 0 -102 47t-110 47q-54 0 -100 -64z" />
<glyph unicode="&#xd2;" horiz-adv-x="1570" d="M85 683q0 286 206 492q207 207 494 207t493 -207q207 -206 207 -492q0 -288 -207 -493q-205 -205 -493 -205t-494 205q-206 206 -206 493zM256 683q0 -217 156 -373t373 -156t373 156t156 373q0 216 -156 372q-156 157 -373 157t-373 -157q-156 -156 -156 -372zM529 1707 h170l171 -171h-85z" />
<glyph unicode="&#xd3;" horiz-adv-x="1570" d="M85 683q0 286 206 492q207 207 494 207t493 -207q207 -206 207 -492q0 -288 -207 -493q-205 -205 -493 -205t-494 205q-206 206 -206 493zM256 683q0 -217 156 -373t373 -156t373 156t156 373q0 216 -156 372q-156 157 -373 157t-373 -157q-156 -156 -156 -372zM700 1536 l170 171h171l-256 -171h-85z" />
<glyph unicode="&#xd4;" horiz-adv-x="1570" d="M85 683q0 286 206 492q207 207 494 207t493 -207q207 -206 207 -492q0 -288 -207 -493q-205 -205 -493 -205t-494 205q-206 206 -206 493zM256 683q0 -217 156 -373t373 -156t373 156t156 373q0 216 -156 372q-156 157 -373 157t-373 -157q-156 -156 -156 -372zM529 1536 l170 171h171l171 -171h-86l-170 114l-171 -114h-85z" />
<glyph unicode="&#xd5;" horiz-adv-x="1570" d="M85 683q0 286 206 492q207 207 494 207t493 -207q207 -206 207 -492q0 -288 -207 -493q-205 -205 -493 -205t-494 205q-206 206 -206 493zM256 683q0 -217 156 -373t373 -156t373 156t156 373q0 216 -156 372q-156 157 -373 157t-373 -157q-156 -156 -156 -372zM581 1481 v69q0 5 10 24q39 75 89 75q31 0 101 -47t109 -47q52 0 100 63v-68q0 -5 -10 -24q-39 -75 -87 -75q-31 0 -102 47t-110 47q-54 0 -100 -64z" />
<glyph unicode="&#xd6;" horiz-adv-x="1570" d="M85 683q0 286 206 492q207 207 494 207t493 -207q207 -206 207 -492q0 -288 -207 -493q-205 -205 -493 -205t-494 205q-206 206 -206 493zM256 683q0 -217 156 -373t373 -156t373 156t156 373q0 216 -156 372q-156 157 -373 157t-373 -157q-156 -156 -156 -372zM564 1536 v137h136v-137h-136zM871 1536v137h136v-137h-136z" />
<glyph unicode="&#xd7;" horiz-adv-x="853" d="M198 550l131 133l-131 133l96 95l133 -131l133 131l95 -95l-131 -133l131 -133l-95 -96l-133 131l-133 -131z" />
<glyph unicode="&#xd8;" horiz-adv-x="1570" d="M85 683q0 286 206 492q207 207 494 207q160 0 307 -71l36 54h203l-97 -148q251 -212 251 -534q0 -288 -207 -493q-205 -205 -493 -205q-163 0 -307 70l-36 -55h-203l97 148q-251 212 -251 535zM256 683q0 -232 174 -389l568 872q-101 46 -213 46q-217 0 -373 -157 q-156 -156 -156 -372zM572 200q101 -46 213 -46q217 0 373 156t156 373q0 230 -174 389z" />
<glyph unicode="&#xd9;" horiz-adv-x="1451" d="M171 538v827h170v-827q0 -159 113 -272q112 -112 271 -112t271 112q113 113 113 272v827h171v-827q0 -229 -163 -391q-164 -162 -392 -162t-391 162t-163 391zM470 1707h170l171 -171h-85z" />
<glyph unicode="&#xda;" horiz-adv-x="1451" d="M171 538v827h170v-827q0 -159 113 -272q112 -112 271 -112t271 112q113 113 113 272v827h171v-827q0 -229 -163 -391q-164 -162 -392 -162t-391 162t-163 391zM640 1536l170 171h171l-256 -171h-85z" />
<glyph unicode="&#xdb;" horiz-adv-x="1451" d="M171 538v827h170v-827q0 -159 113 -272q112 -112 271 -112t271 112q113 113 113 272v827h171v-827q0 -229 -163 -391q-164 -162 -392 -162t-391 162t-163 391zM470 1536l170 171h171l171 -171h-86l-170 114l-171 -114h-85z" />
<glyph unicode="&#xdc;" horiz-adv-x="1451" d="M171 538v827h170v-827q0 -159 113 -272q112 -112 271 -112t271 112q113 113 113 272v827h171v-827q0 -229 -163 -391q-164 -162 -392 -162t-391 162t-163 391zM504 1536v137h136v-137h-136zM811 1536v137h136v-137h-136z" />
<glyph unicode="&#xdd;" horiz-adv-x="1005" d="M-41 1365h201l342 -525l343 525h203l-459 -708v-657h-171v657zM417 1536l170 171h171l-256 -171h-85z" />
<glyph unicode="&#xe0;" horiz-adv-x="1271" d="M85 512q0 218 155 373q156 156 374 156q219 0 374 -156q155 -155 155 -373v-512h-170v154q-151 -169 -376 -169q-213 0 -363 156q-149 157 -149 371zM256 512q0 -147 106 -253q106 -105 252 -105t253 105q106 106 106 253t-106 252q-106 106 -253 106q-146 0 -252 -106 q-106 -105 -106 -252zM401 1367h170l171 -171h-85z" />
<glyph unicode="&#xe1;" horiz-adv-x="1271" d="M85 512q0 218 155 373q156 156 374 156q219 0 374 -156q155 -155 155 -373v-512h-170v154q-151 -169 -376 -169q-213 0 -363 156q-149 157 -149 371zM256 512q0 -147 106 -253q106 -105 252 -105t253 105q106 106 106 253t-106 252q-106 106 -253 106q-146 0 -252 -106 q-106 -105 -106 -252zM572 1196l170 171h171l-256 -171h-85z" />
<glyph unicode="&#xe2;" horiz-adv-x="1271" d="M85 512q0 218 155 373q156 156 374 156q219 0 374 -156q155 -155 155 -373v-512h-170v154q-151 -169 -376 -169q-213 0 -363 156q-149 157 -149 371zM256 512q0 -147 106 -253q106 -105 252 -105t253 105q106 106 106 253t-106 252q-106 106 -253 106q-146 0 -252 -106 q-106 -105 -106 -252zM333 1196l170 171h171l171 -171h-86l-170 114l-171 -114h-85z" />
<glyph unicode="&#xe3;" horiz-adv-x="1271" d="M85 512q0 218 155 373q156 156 374 156q219 0 374 -156q155 -155 155 -373v-512h-170v154q-151 -169 -376 -169q-213 0 -363 156q-149 157 -149 371zM256 512q0 -147 106 -253q106 -105 252 -105t253 105q106 106 106 253t-106 252q-106 106 -253 106q-146 0 -252 -106 q-106 -105 -106 -252zM401 1141v69q0 5 10 24q39 75 89 75q31 0 101 -47t109 -47q52 0 100 63v-68q0 -5 -10 -24q-39 -75 -87 -75q-31 0 -102 47t-110 47q-54 0 -100 -64z" />
<glyph unicode="&#xe4;" horiz-adv-x="1271" d="M85 512q0 218 155 373q156 156 374 156q219 0 374 -156q155 -155 155 -373v-512h-170v154q-151 -169 -376 -169q-213 0 -363 156q-149 157 -149 371zM256 512q0 -147 106 -253q106 -105 252 -105t253 105q106 106 106 253t-106 252q-106 106 -253 106q-146 0 -252 -106 q-106 -105 -106 -252zM384 1196v137h136v-137h-136zM691 1196v137h136v-137h-136z" />
<glyph unicode="&#xe5;" horiz-adv-x="1271" d="M85 512q0 218 155 373q156 156 374 156q219 0 374 -156q155 -155 155 -373v-512h-170v154q-151 -169 -376 -169q-213 0 -363 156q-149 157 -149 371zM256 512q0 -147 106 -253q106 -105 252 -105t253 105q106 106 106 253t-106 252q-106 106 -253 106q-146 0 -252 -106 q-106 -105 -106 -252zM461 1239q0 53 37 90q38 38 91 38q52 0 90 -38t38 -90q0 -53 -38 -91q-37 -37 -90 -37q-54 0 -91 37t-37 91zM529 1239q0 -60 60 -60q59 0 59 60q0 59 -59 59q-60 0 -60 -59z" />
<glyph unicode="&#xe6;" horiz-adv-x="2116" d="M85 512q0 217 156 373q157 156 373 156q135 0 251 -64q117 -64 191 -177q73 112 191 177q118 64 253 64q158 0 291 -86q131 -85 196 -228l-731 -474q108 -99 248 -99q145 0 249 104q105 105 106 252h172q-1 -216 -149 -371q-145 -154 -361 -154q-227 0 -378 169v-154 h-170v154q-151 -169 -376 -169q-213 0 -363 156q-149 157 -149 371zM256 512q0 -147 106 -253q106 -105 252 -105t253 105q106 106 106 253t-106 252q-106 106 -253 106q-146 0 -252 -106q-106 -105 -106 -252zM1143 512q0 -56 21 -116l584 379q-104 95 -248 95 q-148 0 -253 -105q-104 -106 -104 -253z" />
<glyph unicode="&#xe8;" d="M85 510q0 221 154 375q154 156 374 156q157 0 290 -86q133 -85 196 -230l-730 -474q103 -97 247 -97q149 0 251 103q103 104 104 252h172q-2 -219 -156 -372q-155 -152 -371 -152q-219 0 -376 152q-155 153 -155 373zM256 510q0 -54 20 -116l584 379q-103 97 -247 97 q-150 0 -253 -106q-104 -106 -104 -254zM359 1367h170l171 -171h-85z" />
<glyph unicode="&#xe9;" d="M85 510q0 221 154 375q154 156 374 156q157 0 290 -86q133 -85 196 -230l-730 -474q103 -97 247 -97q149 0 251 103q103 104 104 252h172q-2 -219 -156 -372q-155 -152 -371 -152q-219 0 -376 152q-155 153 -155 373zM256 510q0 -54 20 -116l584 379q-103 97 -247 97 q-150 0 -253 -106q-104 -106 -104 -254zM529 1196l170 171h171l-256 -171h-85z" />
<glyph unicode="&#xea;" d="M85 510q0 221 154 375q154 156 374 156q157 0 290 -86q133 -85 196 -230l-730 -474q103 -97 247 -97q149 0 251 103q103 104 104 252h172q-2 -219 -156 -372q-155 -152 -371 -152q-219 0 -376 152q-155 153 -155 373zM256 510q0 -54 20 -116l584 379q-103 97 -247 97 q-150 0 -253 -106q-104 -106 -104 -254zM359 1196l170 171h171l171 -171h-86l-170 114l-171 -114h-85z" />
<glyph unicode="&#xeb;" d="M85 510q0 221 154 375q154 156 374 156q157 0 290 -86q133 -85 196 -230l-730 -474q103 -97 247 -97q149 0 251 103q103 104 104 252h172q-2 -219 -156 -372q-155 -152 -371 -152q-219 0 -376 152q-155 153 -155 373zM256 510q0 -54 20 -116l584 379q-103 97 -247 97 q-150 0 -253 -106q-104 -106 -104 -254zM393 1196v137h136v-137h-136zM700 1196v137h136v-137h-136z" />
<glyph unicode="&#xec;" horiz-adv-x="512" d="M171 0v1024h170v-1024h-170zM1 1367h170l171 -171h-85z" />
<glyph unicode="&#xed;" horiz-adv-x="512" d="M171 0v1024h170v-1024h-170zM171 1196l170 171h171l-256 -171h-85z" />
<glyph unicode="&#xee;" horiz-adv-x="512" d="M171 0v1024h170v-1024h-170zM1 1196l170 171h171l171 -171h-86l-170 114l-171 -114h-85z" />
<glyph unicode="&#xef;" horiz-adv-x="512" d="M171 0v1024h170v-1024h-170zM35 1196v137h136v-137h-136zM342 1196v137h136v-137h-136z" />
<glyph unicode="&#xf1;" d="M128 0v597q0 176 134 310t310 134q175 0 309 -134t134 -310v-597h-170v597q0 113 -81 193q-80 80 -192 80q-113 0 -193 -80t-80 -193v-597h-171zM410 1141v69q0 5 10 24q39 75 89 75q31 0 101 -47t109 -47q52 0 100 63v-68q0 -5 -10 -24q-39 -75 -87 -75q-31 0 -102 47 t-110 47q-54 0 -100 -64z" />
<glyph unicode="&#xf2;" d="M85 512q0 218 155 373q156 156 374 156q219 0 374 -156q155 -155 155 -373t-155 -373q-154 -154 -374 -154q-219 0 -374 154q-155 155 -155 373zM256 512q0 -147 106 -253q106 -105 252 -105t253 105q106 106 106 253t-106 252q-106 106 -253 106q-146 0 -252 -106 q-106 -105 -106 -252zM359 1367h170l171 -171h-85z" />
<glyph unicode="&#xf3;" d="M85 512q0 218 155 373q156 156 374 156q219 0 374 -156q155 -155 155 -373t-155 -373q-154 -154 -374 -154q-219 0 -374 154q-155 155 -155 373zM256 512q0 -147 106 -253q106 -105 252 -105t253 105q106 106 106 253t-106 252q-106 106 -253 106q-146 0 -252 -106 q-106 -105 -106 -252zM546 1196l170 171h171l-256 -171h-85z" />
<glyph unicode="&#xf4;" d="M85 512q0 218 155 373q156 156 374 156q219 0 374 -156q155 -155 155 -373t-155 -373q-154 -154 -374 -154q-219 0 -374 154q-155 155 -155 373zM256 512q0 -147 106 -253q106 -105 252 -105t253 105q106 106 106 253t-106 252q-106 106 -253 106q-146 0 -252 -106 q-106 -105 -106 -252zM359 1196l170 171h171l171 -171h-86l-170 114l-171 -114h-85z" />
<glyph unicode="&#xf5;" d="M85 512q0 218 155 373q156 156 374 156q219 0 374 -156q155 -155 155 -373t-155 -373q-154 -154 -374 -154q-219 0 -374 154q-155 155 -155 373zM256 512q0 -147 106 -253q106 -105 252 -105t253 105q106 106 106 253t-106 252q-106 106 -253 106q-146 0 -252 -106 q-106 -105 -106 -252zM410 1141v69q0 5 10 24q39 75 89 75q31 0 101 -47t109 -47q52 0 100 63v-68q0 -5 -10 -24q-39 -75 -87 -75q-31 0 -102 47t-110 47q-54 0 -100 -64z" />
<glyph unicode="&#xf6;" d="M85 512q0 218 155 373q156 156 374 156q219 0 374 -156q155 -155 155 -373t-155 -373q-154 -154 -374 -154q-219 0 -374 154q-155 155 -155 373zM256 512q0 -147 106 -253q106 -105 252 -105t253 105q106 106 106 253t-106 252q-106 106 -253 106q-146 0 -252 -106 q-106 -105 -106 -252zM393 1196v137h136v-137h-136zM700 1196v137h136v-137h-136z" />
<glyph unicode="&#xf7;" horiz-adv-x="853" d="M171 614v137h512v-137h-512zM358 393v136h137v-136h-137zM358 836v137h137v-137h-137z" />
<glyph unicode="&#xf8;" d="M85 512q0 218 155 373q156 156 374 156q126 0 238 -56l29 39h203l-99 -137q158 -158 158 -375q0 -218 -155 -373q-154 -154 -374 -154q-126 0 -237 54l-29 -39h-203l99 137q-159 157 -159 375zM256 512q0 -130 89 -234l406 565q-65 27 -137 27q-146 0 -252 -106 q-106 -105 -106 -252zM478 181q64 -27 136 -27q146 0 253 105q106 106 106 253q0 130 -89 234z" />
<glyph unicode="&#xf9;" d="M128 427v597h171v-597q0 -113 80 -193t193 -80q112 0 192 80q81 79 81 193v597h170v-597q0 -175 -134 -309q-133 -133 -309 -133q-177 0 -310 133q-134 134 -134 309zM359 1367h170l171 -171h-85z" />
<glyph unicode="&#xfa;" d="M128 427v597h171v-597q0 -113 80 -193t193 -80q112 0 192 80q81 79 81 193v597h170v-597q0 -175 -134 -309q-133 -133 -309 -133q-177 0 -310 133q-134 134 -134 309zM529 1196l170 171h171l-256 -171h-85z" />
<glyph unicode="&#xfb;" d="M128 427v597h171v-597q0 -113 80 -193t193 -80q112 0 192 80q81 79 81 193v597h170v-597q0 -175 -134 -309q-133 -133 -309 -133q-177 0 -310 133q-134 134 -134 309zM359 1196l170 171h171l171 -171h-86l-170 114l-171 -114h-85z" />
<glyph unicode="&#xfc;" d="M128 427v597h171v-597q0 -113 80 -193t193 -80q112 0 192 80q81 79 81 193v597h170v-597q0 -175 -134 -309q-133 -133 -309 -133q-177 0 -310 133q-134 134 -134 309zM393 1196v137h136v-137h-136zM700 1196v137h136v-137h-136z" />
<glyph unicode="&#xfd;" horiz-adv-x="954" d="M-49 -340l220 340v1024h170v-761l495 761h203l-887 -1364h-201zM476 1196l170 171h171l-256 -171h-85z" />
<glyph unicode="&#xff;" horiz-adv-x="954" d="M-49 -340l220 340v1024h170v-761l495 761h203l-887 -1364h-201zM340 1196v137h136v-137h-136zM647 1196v137h136v-137h-136z" />
<glyph unicode="&#x131;" horiz-adv-x="512" d="M171 0v1024h170v-1024h-170z" />
<glyph unicode="&#x2c7;" horiz-adv-x="853" d="M171 1707h85l171 -115l170 115h86l-171 -171h-171z" />
<glyph unicode="&#x2da;" horiz-adv-x="597" d="M171 1579q0 53 37 90q38 38 91 38q52 0 90 -38t38 -90q0 -53 -38 -91q-37 -37 -90 -37q-54 0 -91 37t-37 91zM239 1579q0 -60 60 -60q59 0 59 60q0 59 -59 59q-60 0 -60 -59z" />
<glyph unicode="&#x2000;" horiz-adv-x="853" />
<glyph unicode="&#x2001;" horiz-adv-x="1707" />
<glyph unicode="&#x2002;" horiz-adv-x="853" />
<glyph unicode="&#x2003;" horiz-adv-x="1707" />
<glyph unicode="&#x2004;" horiz-adv-x="569" />
<glyph unicode="&#x2005;" horiz-adv-x="426" />
<glyph unicode="&#x2006;" horiz-adv-x="284" />
<glyph unicode="&#x2007;" horiz-adv-x="284" />
<glyph unicode="&#x2008;" horiz-adv-x="213" />
<glyph unicode="&#x2009;" horiz-adv-x="341" />
<glyph unicode="&#x200a;" horiz-adv-x="94" />
<glyph unicode="&#x2010;" horiz-adv-x="853" d="M171 614v137h512v-137h-512z" />
<glyph unicode="&#x2011;" horiz-adv-x="853" d="M171 614v137h512v-137h-512z" />
<glyph unicode="&#x2012;" horiz-adv-x="853" d="M171 614v137h512v-137h-512z" />
<glyph unicode="&#x202f;" horiz-adv-x="341" />
<glyph unicode="&#x205f;" horiz-adv-x="426" />
<glyph unicode="&#xe000;" horiz-adv-x="1025" d="M0 1025h1025v-1025h-1025v1025z" />
<glyph unicode="&#xfb01;" horiz-adv-x="1126" d="M785 0v1024h170v-1024h-170zM785 1195v170h170v-170h-170zM85 683v170h86v69q0 175 134 309t309 134v-170q-112 0 -193 -81q-80 -80 -80 -192v-69h171v-170h-171v-683h-170v683h-86z" />
<glyph unicode="&#xfb02;" horiz-adv-x="1126" d="M785 0v1365h170v-1365h-170zM85 683v170h86v69q0 175 134 309t309 134v-170q-112 0 -193 -81q-80 -80 -80 -192v-69h171v-170h-171v-683h-170v683h-86z" />
<glyph unicode="&#xfb03;" horiz-adv-x="1740" d="M1399 0v1024h170v-1024h-170zM1399 1195v170h170v-170h-170zM699 683v170h86v69q0 175 134 309t309 134v-170q-112 0 -193 -81q-80 -80 -80 -192v-69h171v-170h-171v-683h-170v683h-86zM85 683v170h86v69q0 175 134 309t309 134v-170q-112 0 -193 -81q-80 -80 -80 -192 v-69h171v-170h-171v-683h-170v683h-86z" />
<glyph unicode="&#xfb04;" horiz-adv-x="1740" d="M1399 0v1365h170v-1365h-170zM699 683v170h86v69q0 175 134 309t309 134v-170q-112 0 -193 -81q-80 -80 -80 -192v-69h171v-170h-171v-683h-170v683h-86zM85 683v170h86v69q0 175 134 309t309 134v-170q-112 0 -193 -81q-80 -80 -80 -192v-69h171v-170h-171v-683h-170 v683h-86z" />
</font>
</defs>
</svg>
